<svg xmlns="http://www.w3.org/2000/svg" viewBox="0 0 512 512" width="512" height="512">
  <rect width="512" height="512" rx="96" fill="#1e3a8a"/>
  <rect x="96" y="120" width="320" height="296" rx="28" fill="#ffffff"/>
  <rect x="96" y="120" width="320" height="72" rx="28" fill="#2563eb"/>
  <rect x="150" y="92" width="28" height="64" rx="14" fill="#1e3a8a"/>
  <rect x="334" y="92" width="28" height="64" rx="14" fill="#1e3a8a"/>
  <g fill="#2563eb">
    <rect x="132" y="224" width="52" height="44" rx="8"/>
    <rect x="230" y="224" width="52" height="44" rx="8"/>
    <rect x="328" y="224" width="52" height="44" rx="8"/>
    <rect x="132" y="292" width="52" height="44" rx="8"/>
    <rect x="230" y="292" width="52" height="44" rx="8" fill="#d97706"/>
    <rect x="328" y="292" width="52" height="44" rx="8"/>
    <rect x="132" y="360" width="52" height="36" rx="8"/>
    <rect x="230" y="360" width="52" height="36" rx="8"/>
  </g>
</svg>
